<svg width="1090.29518" height="701.95039" xmlns="http://www.w3.org/2000/svg">
 <title>dream_world</title>

 <g>
  <title>background</title>
  <rect fill="none" id="canvas_background" height="703.95039" width="1092.29518" y="-1" x="-1"/>
 </g>
 <g>
  <title>Layer 1</title>
  <path transform="rotate(11.402233123779297 779.4759521484374,100.2388916015623) " stroke="null" id="svg_2" fill="#f2f2f2" d="m1060.654404,78.799274c-65.3553,7.99431 -145.70746,18.098109 -228.32333,28.60113c-119.45054,15.190203 -243.62811,31.223199 -334.03367,42.943619q2.996,-6.942042 6.97412,-13.598218a479.13119,283.752677 0 0 1 263.635,-82.540673l0.00833,0a483.29525,286.21873 0 0 1 81.40912,-4.071097a478.25725,283.235109 0 0 1 210.33043,28.665239z"/>
  <circle stroke="null" id="svg_3" fill="#e5e5e5" r="50.390285" cy="57.081998" cx="111.509481"/>
  <path stroke="null" transform="rotate(65.58673095703125 8.159049987792992,199.14627075195312) " id="svg_8" fill="#536dfe" d="m26.353534,200.962579c-3.053456,21.634369 -23.723248,37.356177 -23.723248,37.356177s-15.719167,-19.354425 -12.665711,-40.988795s23.723248,-37.356177 23.723248,-37.356177s15.719141,19.354425 12.665711,40.988795z"/>
  <path stroke="null" transform="rotate(17.0568904876709 495.95538330078114,193.69450378417963) " id="svg_10" fill="#ff5656" d="m477.737522,185.51829c-19.69475,15.118378 -17.442627,35.550443 -17.442627,35.550443s34.183609,-4.079646 53.878358,-19.198013s17.442645,-35.550443 17.442645,-35.550443s-34.183609,4.079646 -53.878377,19.198013z"/>
  <path stroke="null" transform="rotate(99.78083038330078 11.700785636901873,305.9708251953125) " id="svg_11" fill="#536dfe" d="m27.423982,307.536039c-2.638711,18.643556 -20.501018,32.191927 -20.501018,32.191927s-13.584108,-16.678834 -10.945384,-35.322369s20.501018,-32.191916 20.501018,-32.191916s13.584108,16.678801 10.945384,35.322358z"/>
  <path stroke="null" transform="rotate(-26.774656295776367 1075.691650390625,463.8008422851564) " id="svg_12" fill="#536dfe" d="m1123.361489,495.970487c0.017434,69.81127 -21.320071,94.20367 -47.646279,94.22853q-0.917274,0.00087 -1.825682,-0.0381q-1.830171,-0.075 -3.62224,-0.32087c-23.76112,-3.24881 -42.229209,-28.8552 -42.245424,-93.77952c-0.016781,-67.18863 44.123865,-152.02109 47.434299,-158.29365c0.00289,0 0.00289,0 0.005822,-0.0057c0.125761,-0.23905 0.190128,-0.35856 0.190128,-0.35856s47.691942,88.76226 47.709376,158.56787z"/>
  <path stroke="null" transform="rotate(-24.64764976501465 1061.7044677734375,442.171569824219) " id="svg_13" fill="#3f3d56" d="m1060.850861,513.044044l18.805252,-29.015244l-18.85123,32.199366l-0.04903,3.330429q-1.975378,-0.045926 -3.90963,-0.196482l2.008572,-42.766805l-0.015914,-0.330921l0.034665,-0.062747l0.190892,-4.041167l-18.926992,-32.259241l18.982467,29.23192l0.047737,0.856965l1.51736,-32.311994l-16.205288,-33.337199l16.401764,27.658658l1.565274,-66.99213l0.006184,-0.222941l0.0001,0.219451l-0.241959,52.830233l16.105629,-20.952547l-16.173144,25.502276l-0.413573,28.932229l15.041542,-27.773019l-15.099659,32.026643l-0.229758,16.087776l21.829442,-38.659701l-21.912243,44.271963l-0.508458,35.77423z"/>
  <path stroke="null" transform="rotate(-51.290992736816406 1107.446044921875,216.7913513183593) " id="svg_15" fill="#536dfe" d="m1160.417213,246.245059c0.019376,63.917405 -23.691092,86.250433 -52.945067,86.273219q-1.019285,0.000793 -2.028735,-0.034888q-2.033705,-0.068716 -4.025071,-0.293778c-26.403605,-2.97454 -46.925556,-26.419078 -46.943574,-85.862123c-0.018649,-61.516152 49.030919,-139.186588 52.709479,-144.929547c0.003214,0 0.003214,0 0.006467,-0.005219c0.139753,-0.218881 0.211276,-0.328322 0.211276,-0.328322s52.995852,81.268437 53.015224,145.180658z"/>
  <path stroke="null" transform="rotate(-44.411102294921875 1071.0648193359377,188.46737670898423) " id="svg_16" fill="#3f3d56" d="m1070.199925,237.214768l19.052719,-19.957212l-19.099297,22.147307l-0.04968,2.290731q-2.001371,-0.031611 -3.961076,-0.135143l2.034999,-29.415786l-0.016121,-0.227615l0.035124,-0.043157l0.1934,-2.779596l-19.176039,-22.188499l19.232239,20.106229l0.048383,0.58944l1.537325,-22.224779l-16.418548,-22.929911l16.617601,19.024129l1.585868,-46.078408l0.00627,-0.153344l0.000095,0.150943l-0.24514,36.337595l16.317567,-14.411534l-16.385936,17.54093l-0.419015,19.90011l15.239482,-19.102786l-15.298358,22.028503l-0.232785,11.065456l22.116704,-26.590848l-22.200612,30.451062l-0.515169,24.606182z"/>
  <circle stroke="null" id="svg_37" fill="#e5e5e5" r="26.999998" cy="303.370429" cx="149.479139"/>
  <circle stroke="null" id="svg_39" fill="#e5e5e5" r="30.000002" cy="210.370437" cx="211.979142"/>
  <path stroke="null" transform="rotate(85.40064239501953 9.004503250122108,254.1094055175781) " id="svg_43" fill="#536dfe" d="m26.243367,255.650247c-2.893076,18.353264 -22.477262,31.690677 -22.477262,31.690677s-14.89358,-16.419133 -12.00049,-34.772375s22.477262,-31.690666 22.477262,-31.690666s14.89358,16.419101 12.00049,34.772365z"/>
  <path transform="rotate(71.86263275146484 -1.4954633712768297,134.10937499999997) " id="svg_44" fill="#536dfe" d="m10.668794,135.553279c-2.04144,17.19843 -15.86062,29.69662 -15.86062,29.69662s-10.50935,-15.386 -8.4679,-32.58441s15.86062,-29.69661 15.86062,-29.69661s10.50935,15.38597 8.4679,32.5844z"/>
  <path transform="rotate(105.62110900878906 1.5045337677002117,362.109375) " id="svg_45" fill="#536dfe" d="m13.668794,363.553279c-2.04144,17.19843 -15.86062,29.69662 -15.86062,29.69662s-10.50935,-15.386 -8.4679,-32.58441s15.86062,-29.69661 15.86062,-29.69661s10.50935,15.38597 8.4679,32.5844z"/>
  <circle stroke="null" id="svg_47" fill="#e5e5e5" r="50.499989" cy="88.870434" cx="276.479135"/>
  <path stroke="null" transform="rotate(17.0568904876709 577.9553833007814,187.69450378417986) " id="svg_53" fill="#5672ff" d="m559.737522,179.51829c-19.69475,15.118378 -17.442627,35.550442 -17.442627,35.550442s34.183609,-4.079646 53.878358,-19.198013s17.442646,-35.550443 17.442646,-35.550443s-34.183609,4.079646 -53.878377,19.198014z"/>
  <path stroke="null" transform="rotate(17.0568904876709 500.9553833007813,231.6945037841796) " id="svg_55" fill="#5672ff" d="m482.737522,223.51829c-19.69475,15.118378 -17.442627,35.550442 -17.442627,35.550442s34.183609,-4.079646 53.878358,-19.198013s17.442646,-35.550443 17.442646,-35.550443s-34.183609,4.079646 -53.878377,19.198014z"/>
  <path stroke="null" transform="rotate(17.0568904876709 583.955383300781,228.6945037841797) " id="svg_56" fill="#ff5656" d="m565.737522,220.51829c-19.69475,15.118378 -17.442627,35.550442 -17.442627,35.550442s34.183609,-4.079646 53.878358,-19.198013s17.442646,-35.550443 17.442646,-35.550443s-34.183609,4.079646 -53.878377,19.198014z"/>
  <text stroke="null" transform="matrix(1.230699896812439,0,0,1.185185194015503,-91.52657937444746,-43.888890981674194) " xml:space="preserve" text-anchor="start" font-family="Helvetica, Arial, sans-serif" font-size="24" id="svg_57" y="275.875" x="487.74385" stroke-opacity="null" stroke-width="0" fill="#000000">GPD</text>
 </g>
</svg>