<svg width="550" height="500" xmlns="http://www.w3.org/2000/svg">
 <title>web_developer</title>

 <g>
  <title>background</title>
  <rect fill="none" id="canvas_background" height="502" width="552" y="-1" x="-1"/>
 </g>
 <g>
  <title>Layer 1</title>
  <path id="svg_3" fill="#2f2e41" d="m148.73407,348.808333l36.8414,0l90.78774,-35.52564s64.47245,-26.31528 59.20939,23.68376s-14.47341,117.103 -14.47341,117.103s-28.94681,-13.15764 -44.736,-9.21035s-5.26306,-80.26162 -5.26306,-80.26162s-128.9449,61.84092 -140.78678,53.94634s-14.4734,-63.15669 -14.4734,-63.15669l32.89412,-6.5788z"/>
  <path id="svg_4" opacity="0.1" d="m148.73407,348.808333l36.8414,0l90.78774,-35.52564s64.47245,-26.31528 59.20939,23.68376s-14.47341,117.103 -14.47341,117.103s-28.94681,-13.15764 -44.736,-9.21035s-5.26306,-80.26162 -5.26306,-80.26162s-128.9449,61.84092 -140.78678,53.94634s-14.4734,-63.15669 -14.4734,-63.15669l32.89412,-6.5788z"/>
  <path id="svg_5" fill="#a0616a" d="m206.77793,233.434313l44.58576,64.05921l103.94537,86.84043s96.0508,22.368 82.89315,38.15717s-93.41926,-15.78917 -93.41926,-15.78917s-119.73455,-86.84044 -123.68184,-93.41927s-47.36751,-68.41973 -47.36751,-68.41973l33.04433,-11.42864z"/>
  <path id="svg_6" opacity="0.1" d="m206.77793,233.434313l44.58576,64.05921l103.94537,86.84043s96.0508,22.368 82.89315,38.15717s-93.41926,-15.78917 -93.41926,-15.78917s-119.73455,-86.84044 -123.68184,-93.41927s-47.36751,-68.41973 -47.36751,-68.41973l33.04433,-11.42864z"/>
  <path id="svg_7" fill="#d0cde1" d="m180.31242,181.706273l28.94681,56.57786s-6.57882,27.63105 -17.10494,30.26258s-55.26209,-34.20987 -55.26209,-34.20987l43.42022,-52.63057z"/>
  <path id="svg_8" opacity="0.1" d="m180.31242,181.706273l28.94681,56.57786s-6.57882,27.63105 -17.10494,30.26258s-55.26209,-34.20987 -55.26209,-34.20987l43.42022,-52.63057z"/>
  <path id="svg_9" fill="#2f2e41" d="m533.45116,319.514393l8.5507,35.27156a2.20311,2.20311 0 0 1 -0.04279,1.19048l-38.78765,121.21126a2.20306,2.20306 0 0 1 -4.28722,-0.42269l-5.36581,-47.21916a2.203,2.203 0 0 1 0.09431,-0.93128l35.60276,-109.26361a2.20306,2.20306 0 0 1 4.2357,0.16344z"/>
  <polygon id="svg_10" fill="#f2f2f2" points="530.3060302734375,322.49298095703125 538.2000122070312,352.7559814453125 503.989990234375,463.280029296875 496.09600830078125,429.07000732421875 530.3060302734375,322.49298095703125 "/>
  <path id="svg_11" fill="#2f2e41" d="m357.94059,486.963583c1.31577,3.94729 136.83949,-1.31577 138.15525,-2.63153a28.56086,28.56086 0 0 0 2.89462,-5.26306c1.2369,-2.63153 2.36844,-5.26306 2.36844,-5.26306l-5.26304,-42.60445l-134.208,-4.76306s-3.35527,36.10458 -4.03949,52.63057c-0.17087,4.17096 -0.17087,7.10508 0.09222,7.89459z"/>
  <polygon id="svg_12" opacity="0.1" points="478.9909973144531,436.96502685546875 481.62200927734375,473.8060302734375 422.4129943847656,473.8060302734375 422.4129943847656,436.96502685546875 478.9909973144531,436.96502685546875 "/>
  <polygon id="svg_13" opacity="0.1" points="402.677001953125,448.8060302734375 403.0299987792969,448.73602294921875 401.3609924316406,464.59600830078125 368.4670104980469,464.59600830078125 368.4670104980469,448.8060302734375 402.677001953125,448.8060302734375 "/>
  <path id="svg_14" opacity="0.1" d="m357.94059,486.963583c1.31577,3.94729 136.83949,-1.31577 138.15525,-2.63153a28.56086,28.56086 0 0 0 2.89462,-5.26306l-141.14206,0c-0.1709,4.17096 -0.1709,7.10508 0.09219,7.89459z"/>
  <circle id="svg_15" fill="#a0616a" r="59.209389" cy="104.07618" cx="200.04888"/>
  <path id="svg_16" fill="#a0616a" d="m196.10159,156.706753s-19.73647,34.20987 -23.68376,52.63057s-59.20939,-36.8414 -59.20939,-36.8414l-7.2367,-19.07858s51.97268,-24.34164 48.02539,-44.07811s42.10446,47.36752 42.10446,47.36752z"/>
  <path id="svg_17" fill="#a0616a" d="m206.6277,259.336363l53.94634,71.05127l128.9449,96.05079s93.41926,19.73647 72.367,34.20987s-81.57738,-13.15764 -81.57738,-13.15764s-130.26064,-69.73551 -157.8917,-98.68232s-78.94585,-77.63009 -78.94585,-77.63009l63.15669,-11.84188z"/>
  <path id="svg_18" fill="#2f2e41" d="m134.26067,369.860563l15.78919,24.99952l94.2313,-29.64581c20.67581,-6.50474 43.34783,-4.11124 61.68676,7.44229c16.44706,10.36164 26.97317,26.80869 3.28941,51.15033c-47.36751,48.68328 -78.94585,22.368 -78.94585,22.368s-159.2075,74.99856 -185.52278,38.15716s-27.631,-55.2621 -27.631,-55.2621s101.3138,-63.15669 117.10297,-59.20939z"/>
  <path id="svg_19" fill="#d0cde1" d="m331.62531,456.701003s42.10445,27.63105 -7.89459,40.78869s-86.84044,-5.26306 -86.84044,-5.26306s-43.42022,0 -43.42022,-22.368s14.47341,-24.99952 14.47341,-24.99952l44.736,6.57882s53.94632,-14.47339 78.94584,5.26307z"/>
  <path id="svg_20" fill="#2f2e41" d="m248.62111,89.181723c4.03,1.79653 8.02621,3.92291 12.40755,4.4444s9.37055,-1.00819 11.44376,-4.903c1.11982,-2.10373 1.24778,-4.57826 1.3,-6.96089c0.15849,-7.22517 -0.36406,-15.03591 -4.94264,-20.6274c-2.9139,-3.55854 -7.16747,-5.80183 -10.18374,-9.274c-2.161,-2.48761 -3.59924,-5.50284 -5.14786,-8.41141c-5.866,-11.01725 -14.55128,-21.60559 -26.62195,-24.78175c-5.04041,-1.32629 -10.328,-1.26157 -15.53945,-1.188l-30.39725,0.42884c-4.91906,0.0694 -9.914,0.15005 -14.623,1.57383c-9.784,2.95823 -16.90779,11.18591 -23.43216,19.05427c-4.88119,5.88668 -9.7753,11.83425 -13.43862,18.54685a65.07888,65.07888 0 0 0 -7.71423,31.88675a29.83261,29.83261 0 0 0 1.09276,8.43732a46.82177,46.82177 0 0 0 3.31627,7.28423c5.70049,11.19673 9.08523,25.18219 2.66543,35.98258c11.15187,-4.55542 22.18591,-10.52835 29.54232,-20.0677c3.29093,-4.26748 5.87181,-9.26316 10.25758,-12.39472s11.532,-3.40321 14.34592,1.1928a12.85719,12.85719 0 0 1 1.4508,6.02242c0.20551,3.44983 0.1999,7.03258 1.66258,10.16374s4.94686,5.65758 8.27337,4.72061c5.72869,-1.61358 5.18009,-10.406 9.59251,-14.4c3.35094,-3.03318 8.52074,-2.45334 12.82574,-3.83026c5.01582,-1.60428 8.77937,-5.94959 10.92379,-10.75939c1.63,-3.65594 1.60645,-13.223 4.69084,-15.20283c3.86798,-2.48287 12.66429,1.46437 16.24968,3.06271z"/>
  <path id="svg_21" fill="#d0cde1" d="m101.27156,147.176023a15.61579,15.61579 0 0 1 8.128,0.02069c8.44618,2.26753 27.38021,8.27035 31.43989,17.40462c5.26306,11.84188 23.68376,30.26258 23.68376,30.26258s24.99952,24.99952 19.73646,42.10446s-24.99952,36.8414 -24.99952,36.8414s5.26306,81.57738 -21.05223,102.62961s-36.8414,6.57882 -36.8414,26.31528s-81.57734,81.57739 -97.36652,43.42023c0,0 7.89459,-71.05128 5.26306,-96.0508c-2.59358,-24.63898 1.20328,-178.36477 92.0085,-202.94807z"/>
  <path id="svg_22" fill="#d0cde1" d="m143.47102,180.390503s80.26162,59.2094 65.78821,84.20892c0,0 -48.68328,23.68375 -59.20939,22.368s-51.31481,-47.36751 -61.84092,-51.31481s-15.78917,-74.99857 55.2621,-55.26211z"/>
 </g>
</svg>