<svg width="280" height="535" xmlns="http://www.w3.org/2000/svg">
 <title>sorting_thoughts</title>

 <g>
  <title>background</title>
  <rect fill="none" id="canvas_background" height="537" width="282" y="-1" x="-1"/>
 </g>
 <g>
  <title>Layer 1</title>
  <path id="svg_4" fill="#2f2e41" d="m67.27869,87.828085s42.34638,1.15129 49.34015,3.69575s10.12116,20.73961 10.12116,20.73961l-32.87919,10.33437l-24.59189,-1.393l-18.50792,1.30782l10.3342,-27.06527l6.18349,-7.61928z"/>
  <path id="svg_5" fill="#9f616a" d="m69.10527,73.932945s2.78616,10.76072 -3.39733,18.38s26.58206,34.76969 26.58206,34.76969l17.28539,-2.971s-3.8097,-33.064 1.30766,-41.43663s-41.77778,-8.74206 -41.77778,-8.74206z"/>
  <polygon id="svg_6" fill="#9f616a" points="184.06300354003906,388.552001953125 145.9239959716797,439.1290283203125 171.95199584960938,454.32501220703125 207.7729949951172,395.7170104980469 184.06300354003906,388.552001953125 "/>
  <path id="svg_7" fill="#2f2e41" d="m157.31013,439.982245s-14.04443,-16.31874 -13.419,-12.67971s-9.993,34.49974 -0.11362,37.48486s94.60062,10.90262 95.76622,1.33594s-25.27425,-16.26185 -25.27425,-16.26185s-15.70758,-15.09625 -19.19024,-13.561s-37.76911,3.68176 -37.76911,3.68176z"/>
  <polygon id="svg_8" fill="#9f616a" points="175.5050048828125,436.8550109863281 205.96800231933594,488.7540283203125 228.96800231933594,475.43402099609375 198.24899291992188,432.9460144042969 175.5050048828125,436.8550109863281 "/>
  <path id="svg_9" fill="#d0cde1" d="m223.59416,313.383595l-9.04068,12.79349s-43.09961,59.85933 -38.52238,64.69241s23.63955,23.09925 33.33415,19.5597s44.13728,-64.72083 44.13728,-64.72083l-8.98395,-35.92119l-20.92442,3.59642z"/>
  <path id="svg_10" fill="#d0cde1" d="m37.93248,301.272955s9.652,18.01033 34.116,24.10848s50.02251,18.56461 50.93227,18.40824s3.48266,-1.53522 4.10813,2.10381s7.33495,9.97888 7.33495,9.97888s27.02289,91.82859 37.343,91.92807s31.52877,-7.29236 31.96942,-10.178s-31.60013,-96.66167 -31.91286,-98.48118l-3.75281,-21.83418s42.37483,6.76621 46.32659,7.96025s39.10542,20.441 39.10542,20.441s35.83585,-25.82868 2.3169,-51.913s-91.13226,-45.21755 -91.13226,-45.21755l-20.66857,-5.81386l-18.01336,-1.07518l-2.6523,-10.17097l-42.66206,2.46143l-44.52122,18.89181l1.76276,48.40195z"/>
  <circle id="svg_11" fill="#9f616a" r="33.23151" cy="62.12025" cx="94.23729"/>
  <path id="svg_12" fill="#6c63ff" d="m64.17272,88.830245l3.99683,-0.687s7.21885,27.79488 29.55057,32.38625c0,0 11.01915,-13.2004 10.54875,-15.42771s8.72666,-14.111 13.61663,-7.45845s-1.19372,123.84077 2.91441,125.94457s12.92142,4.33553 5.82817,12.11114s-35.26728,18.23792 -41.50766,14.62732s-18.99128,-34.20115 -24.50672,-44.49277s-14.343,-45.303 -14.343,-45.303s-11.27257,-38.33773 -4.33569,-47.02309s18.23771,-24.67726 18.23771,-24.67726z"/>
  <path id="svg_13" fill="#2f2e41" d="m95.9771,233.100915a189.57234,189.57234 0 0 1 -3.80657,24.26808c-1.62981,6.508 -3.52744,10.43726 -5.693,10.26986c-5.52564,-0.413 -8.03729,7.69124 -9.33222,17.03456c-1.38419,9.91264 -1.38419,21.22057 -2.14325,25.2169c-1.00462,5.28009 -7.43445,9.30987 -20.28293,8.12661a90.65971,90.65971 0 0 1 -22.3481,-5.481c-17.34708,-6.307 -16.83364,-57.45529 -13.93125,-95.40907c1.77486,-23.26346 4.44281,-41.58171 4.44281,-41.58171s-5.26885,-15.71735 -6.95445,-26.48956a35.21054,35.21054 0 0 1 -0.50235,-5.94976c0.25673,-9.4103 17.19279,-21.44117 27.57425,-37.28129c10.39263,-15.84013 24.81312,-17.61773 24.81312,-17.61773l-4.934,14.89124s7.64654,11.79917 7.70241,23.029s18.30708,19.33411 24.85968,24.77043c4.11909,3.41589 4.01867,49.01623 0.53585,82.20344z"/>
  <path id="svg_14" fill="#2f2e41" d="m110.4069,93.528165s1.19752,1.41554 6.681,0.72494c6.5762,-0.82821 15.61831,1.4471 17.719,7.72579c3.85229,11.51411 14.71265,58.35238 14.71265,58.35238s4.52051,53.54776 6.55328,65.37461s1.02354,22.30327 3.02786,28.51521s-19.78726,-11.58515 -27.81871,-9.26808s-13.19156,-27.70493 -12.18233,-38.18136s1.8621,-21.86262 -0.92406,-32.62334s2.15346,-39.24042 1.96865,-45.76509s-17.7094,-22.96903 -9.73734,-34.85506z"/>
  <path id="svg_15" fill="#9f616a" d="m133.92051,259.953955s35.18569,19.19574 38.5531,46.51753s-47.06213,-26.45463 -47.06213,-26.45463l8.50903,-20.0629z"/>
  <path id="svg_16" fill="#9f616a" d="m154.00606,240.578935s10.78165,54.34487 27.57717,51.45809s-9.382,-54.58544 -9.382,-54.58544l-18.19517,3.12735z"/>
  <path id="svg_17" fill="#2f2e41" d="m211.5261,477.495365s-8.6,9.90785 -10.73227,8.40107s-7.03635,19.00543 -2.61549,22.92875s21.45041,10.36265 21.63522,16.88732s45.85749,5.231 47.49219,-1.60643s-5.72869,-22.43119 -10.90295,-25.28839s-24.30619,-29.15463 -24.30619,-29.15463s-14.98404,2.18898 -20.57051,7.83231z"/>
  <path id="svg_18" opacity="0.1" d="m128.31592,293.190695c-8.16006,-5.76008 -30.94346,-7.18889 -51.17065,-8.51728c-8.87443,-0.56932 -17.25776,-1.12746 -23.69876,-2.03165c-6.20656,-0.85956 -11.788,-6.53032 -16.74432,-14.98063c-7.51259,-12.80378 -13.5852,-32.00394 -18.26245,-50.53429c1.77486,-23.26346 4.44281,-41.58171 4.44281,-41.58171s-5.26885,-15.71735 -6.95445,-26.48956a14.17612,14.17612 0 0 1 4.48749,-4.041c21.455,-9.20937 41.93887,81.422 44.53984,95.64358c0.04469,0.23438 0.07815,0.45765 0.11167,0.6474c1.26134,7.32284 14.89124,13.58527 27.10343,16.06339c7.52376,1.52931 14.52291,1.62981 17.749,-0.35722c8.47258,-5.20187 34.52676,15.61686 36.50255,16.20852c1.97585,0.60282 -6.38514,28.26446 -18.10616,19.97045z"/>
  <path id="svg_19" fill="#2f2e41" d="m20.4192,139.435635s-15.5938,7.3634 -8.74209,41.77781s20.6546,92.92316 41.76383,95.85138s63.14288,2.26 74.87024,10.5473s20.08569,-19.37505 18.10981,-19.97207s-28.032,-21.40766 -36.50407,-16.205s-42.81548,-3.88057 -44.84825,-15.70741s-22.84374,-105.65973 -44.64947,-96.29201z"/>
  <path id="svg_20" fill="#2f2e41" d="m132.78844,122.931755l17.138,39.767s1.72533,-0.86074 3.72966,5.3512s2.94252,11.67048 6.45363,15.75016s19.13352,62.27571 19.60262,65.005s-21.57707,12.13832 -26.50318,4.55531s-20.42073,-130.42867 -20.42073,-130.42867z"/>
  <path id="svg_21" fill="#2f2e41" d="m75.33067,61.657665c1.27358,-0.34 1.46068,-2.031 1.50337,-3.34846c0.22859,-7.0554 4.4771,-14.295 11.23078,-16.349a18.88142,18.88142 0 0 1 7.9587,-0.438a30.14557,30.14557 0 0 1 10.77824,3.59582c1.759,0.98891 3.48436,2.18 5.47953,2.482c1.31767,0.1995 7.02305,1.85833 8.33513,2.09178c2.88475,0.51325 5.56568,3.09426 8.33384,2.13381c2.64832,-0.91886 3.23456,-4.34782 3.29857,-7.15028c0.14583,-6.38458 -7.70095,-12.22108 -11.97,-16.97071c-3.23965,-3.60432 -8.11764,-5.26813 -12.88608,-6.13328a85.79028,85.79028 0 0 0 -16.85259,-1.02522c-7.63115,0.13611 -8.47383,-2.27488 -15.355,1.027s-12.66118,9.8735 -12.991,17.49873c-0.06871,1.58841 0.09515,3.18344 -0.0384,4.76771c-0.3258,3.86482 -3.37806,6.35568 -4.34078,10.11282a20.33477,20.33477 0 0 0 2.83974,16.25034c2.5538,3.75829 3.27068,6.54442 6.34532,10.62164c1.84581,-1.9123 0.76625,-1.74738 2.61206,-3.65968a4.54728,4.54728 0 0 0 1.35239,-5.55565l-1.96,-7.64516a6.89794,6.89794 0 0 1 -0.16972,-4.25467c2.10112,-5.19204 4.37244,2.51541 6.4959,1.94846z"/>
 </g>
</svg>