<svg width="1090.29518" height="674.01653" xmlns="http://www.w3.org/2000/svg">
 <title>Ride_till_I_can_no_more</title>

 <g>
  <title>background</title>
  <rect fill="none" id="canvas_background" height="402" width="582" y="-1" x="-1"/>
 </g>
 <g>
  <title>Layer 1</title>
  <path id="svg_2" fill="#f2f2f2" d="m942.584771,422.48636c-23.00083,22.39038 -25.81021,56.8096 -25.81021,56.8096s34.48232,-1.88275 57.48315,-24.27313s25.81021,-56.80959 25.81021,-56.80959s-34.48233,1.88275 -57.48315,24.27312z"/>
  <ellipse id="svg_4" fill="#f2f2f2" ry="30.88036" rx="180" cy="241.11957" cx="901.29518"/>
  <circle id="svg_7" fill="#f2f2f2" r="77.41424" cy="138.83504" cx="176.10228"/>
  <circle id="svg_9" fill="#f2f2f2" r="64.19717" cy="314.43319" cx="253.51652"/>
  <circle id="svg_10" fill="#f2f2f2" r="64.19717" cy="537.23514" cx="220.78855"/>
  <path id="svg_12" fill="#fff" d="m808.359821,673.87191l-0.73455,-0.02944c1.71306,-42.60064 10.63508,-69.972 17.818,-85.43178c7.799,-16.78654 15.31438,-23.58208 15.38941,-23.64886l0.48863,0.54948c-0.074,0.06606 -7.50173,6.7941 -15.23827,23.467c-7.14325,15.39445 -16.01645,42.65344 -17.72322,85.0936z"/>
  <path id="svg_13" fill="#fff" d="m887.129591,673.95987l-0.70584,-0.20536a114.05766,114.05766 0 0 1 28.71593,-47.77524l0.494,0.54428a113.28289,113.28289 0 0 0 -28.50409,47.43632z"/>
  <path id="svg_14" fill="#fff" d="m737.492591,673.90782l-0.72846,-0.10125a80.08,80.08 0 0 0 -7.20284,-46.80693a64.44942,64.44942 0 0 0 -11.3677,-16.58782l0.50873,-0.53063a65.25638,65.25638 0 0 1 11.5181,16.79282a80.814,80.814 0 0 1 7.27217,47.23381z"/>
  <rect id="svg_15" fill="#3f3d56" height="2" width="1070" y="671.85719"/>
 </g>
</svg>