<svg width="310" height="402" xmlns="http://www.w3.org/2000/svg">
 <title>transfer money</title>

 <g>
  <title>background</title>
  <rect fill="none" id="canvas_background" height="404" width="312" y="-1" x="-1"/>
 </g>
 <g>
  <title>Layer 1</title>
  <ellipse id="svg_3" fill="#f2f2f2" ry="36.64" rx="229" cy="377.96923" cx="161"/>
  <path id="svg_4" fill="#2f2e41" d="m110.12034,25.784702s1.94963,6.49877 -9.09828,12.34766s-14.2973,27.94472 -1.29975,34.44349s16.8968,14.94718 10.398,20.79607s-18.19656,21.446 -2.59951,25.34521s17.54668,11.69779 12.99754,14.94717s10.398,-5.84889 10.398,-5.84889s2.59951,15.597 16.24693,11.69779s51.99017,-77.98526 32.49385,-88.38329s-69.53678,-25.34521 -69.53678,-25.34521z"/>
  <path id="svg_5" fill="#ffb9b9" d="m133.67509,88.536912s6.74118,23.59415 -5.05589,25.27945a46.05232,46.05232 0 0 0 -20.22356,8.42648l21.90885,28.65l40.44712,0l25.27946,-25.27945s-33.70594,-25.27945 -26.96475,-40.44712s-35.39123,3.37064 -35.39123,3.37064z"/>
  <path id="svg_6" opacity="0.1" d="m133.67509,88.536912s6.74118,23.59415 -5.05589,25.27945a46.05232,46.05232 0 0 0 -20.22356,8.42648l21.90885,28.65l40.44712,0l25.27946,-25.27945s-33.70594,-25.27945 -26.96475,-40.44712s-35.39123,3.37064 -35.39123,3.37064z"/>
  <polygon id="svg_7" fill="#ffb9b9" points="143.7869873046875,381.77899169921875 182.54901123046875,395.260986328125 209.51300048828125,396.94598388671875 207.8280029296875,373.35198974609375 152.2130126953125,356.90399169921875 143.7869873046875,381.77899169921875 "/>
  <path id="svg_8" fill="#575a89" d="m193.50312,376.722652s0,23.59415 3.37059,23.59415s48.87361,-5.05589 62.356,0s33.70594,-13.48237 23.59416,-23.59415s-26.60567,-25.27945 -36.897,-21.90886s-52.42374,11.79708 -52.42374,11.79708l-0.00001,10.11178z"/>
  <path id="svg_9" fill="#575a89" d="m69.63381,354.813792s-20.22356,40.44712 -6.74119,43.81772s28.65005,-1.6853 30.33534,-3.3706s25.27946,-8.42648 28.65,-5.05589s3.37059,-13.48237 3.37059,-13.48237l-55.61474,-21.90886z"/>
  <path id="svg_10" fill="#2f2e41" d="m86.48678,299.199002s-32.02064,43.81771 -8.42649,55.61479s136.509,11.79708 144.93552,0s11.79708,-48.8736 0,-52.2442s-136.50903,-3.37059 -136.50903,-3.37059z"/>
  <path id="svg_11" opacity="0.2" d="m86.48678,299.199002s-32.02064,43.81771 -8.42649,55.61479s136.509,11.79708 144.93552,0s11.79708,-48.8736 0,-52.2442s-136.50903,-3.37059 -136.50903,-3.37059z"/>
  <circle id="svg_12" fill="#ffb9b9" r="38.761829" cy="61.57216" cx="147.15746"/>
  <path id="svg_13" fill="#6391ff" d="m86.48678,122.242842l33.70593,-6.74119s8.42649,26.96475 35.39123,21.90886s33.70594,-21.90886 33.70594,-21.90886s20.22356,8.42649 21.90886,8.42649s23.59415,8.42648 23.59415,13.48237s-25.27945,55.61479 -25.27945,55.61479l3.37059,91.006l-124.712,-3.3706l8.42649,-89.32072l-10.11174,-69.09714z"/>
  <path id="svg_14" fill="#ffb9b9" d="m67.94851,166.060562s-10.11178,89.32072 -3.37059,96.06191s33.70593,25.27945 33.70593,25.27945l0,-20.22356l-13.48237,-25.27945l13.48237,-58.98539l-30.33534,-16.85296z"/>
  <path id="svg_15" fill="#ffb9b9" d="m242.37673,163.532612s-5.89854,91.84867 -5.89854,95.21927s-15.16767,15.16767 -20.22356,15.16767s-8.42649,-8.42649 -8.42649,-8.42649l11.79708,-13.48237l-8.42648,-69.09717l31.17799,-19.38091z"/>
  <path id="svg_16" fill="#2f2e41" d="m226.36641,292.457812s75.83835,-42.13242 77.52365,0s-38.76183,58.98539 -38.76183,58.98539s-104.4884,31.332 -108.70164,19.87922s-12.63972,-29.991 -5.89854,-31.6763s15.16767,-5.05589 18.53827,-1.6853s45.503,-25.27945 45.503,-25.27945l11.79709,-20.22356z"/>
  <path id="svg_17" opacity="0.2" stroke-width="2" stroke-miterlimit="10" stroke="#000" fill="none" d="m261.75764,287.401922s-15.16767,6.74119 -20.22356,11.79708s-26.96475,13.48237 -26.96475,13.48237"/>
  <path id="svg_18" fill="#6391ff" d="m96.59856,125.613432l-10.11178,-3.37059s-37.07653,38.76183 -25.27945,48.87361s18.53826,13.48237 21.90885,16.853s20.22356,5.05589 20.22356,5.05589l-6.74118,-67.41191z"/>
  <path id="svg_19" fill="#6391ff" d="m219.62522,134.039922l15.16767,3.37059s11.79708,25.27945 15.16767,28.65s-5.05589,1.68529 -10.11178,8.42648s-10.11178,18.53826 -20.22356,18.53826s-23.59415,-16.853 -23.59415,-16.853l23.59415,-42.13233z"/>
  <path id="svg_20" fill="#2f2e41" d="m89.85737,307.625482s-64.04128,-45.503 -85.95013,-11.79707s94.37661,79.20894 111.22958,85.95013s32.02064,13.48237 32.02064,13.48237s15.16767,-37.07653 15.16767,-43.81771s-11.79708,-6.74119 -15.16767,-6.74119s-18.53826,-3.37059 -21.90886,-8.42648s-35.39123,-28.65005 -35.39123,-28.65005z"/>
  <path id="svg_21" opacity="0.2" stroke-width="2" stroke-miterlimit="10" stroke="#000" fill="none" d="m54.46614,295.828412s16.853,13.48237 32.02064,16.853s20.22356,11.79708 20.22356,11.79708"/>
  <path id="svg_22" fill="#575a89" d="m78.232,232.461922l1.34634,71.35617a8.93275,8.93275 0 0 0 9.03153,8.76368l132.78977,-1.492a8.93275,8.93275 0 0 0 8.81757,-8.4177l4.03063,-69.86415a8.93277,8.93277 0 0 0 -8.91793,-9.44726l-138.16673,0a8.93276,8.93276 0 0 0 -8.93118,9.10126z"/>
  <path id="svg_23" fill="#2f2e41" d="m149.22836,12.879812s2.1598,7.19934 -10.07907,13.67875s-15.83855,30.95716 -1.43987,38.1565s18.71828,16.55847 11.51894,23.03788s-20.15815,23.75782 -2.87973,28.07742s19.43821,12.95881 14.39867,16.55848s11.519,-6.4794 11.519,-6.4794s2.87973,17.27841 17.99834,12.95881s30.20328,-82.83994 13.35031,-103.0635c-15.67032,-18.80433 -54.38659,-22.92494 -54.38659,-22.92494z"/>
  <path id="svg_24" fill="#2f2e41" d="m144.62952,5.469412c0.00329,-10.5474 31.5587,-2.9686 45.088,11.75792c9.3687,10.1979 23.59878,25.54036 11.67441,36.35523s20.43938,24.99208 29.11908,29.29045s25.81718,17.443 10.34329,26.26121s-15.22443,17.71981 -9.401,19.82742s-12.83934,-3.13373 -12.83934,-3.13373s1.8855,17.415 -13.83788,17.3316s-60.83248,-86.49446 -50.05628,-110.513c10.01996,-22.33291 -10.09028,-27.1771 -10.09028,-27.1771z"/>
  <path id="svg_25" fill="#2f2e41" d="m151.46451,3.157992c-42.19784,-2.541 -46.43289,29.22289 -46.43289,29.22289c0.29172,18.38181 29.48282,9.42517 37.59043,12.16542c9.78139,-7.0364 28.63565,-20.35008 42.11967,-29.85137a63.77377,63.77377 0 0 0 -33.27721,-11.53694z"/>
 </g>
</svg>