<svg width="500" height="350" xmlns="http://www.w3.org/2000/svg">
 <g>
  <title>background</title>
  <rect x="-1" y="-1" width="502" height="352" id="canvas_background" fill="none"/>
 </g>

 <g>
  <title>Layer 1</title>
  <path d="m392.397836,210.853104l-36.74751,-34.30565l-17.42584,-16.07268a14.1379,14.1379 0 0 1 2.69428,-22.73713l0,0a14.1379,14.1379 0 0 1 19.85155,6.69618l5.73171,13.1512l35.59506,36.922l-9.69925,16.34608z" fill="#ffb9b9" id="svg_1"/>
  <path d="m397.200776,188.601494l-12.90434,21.49472l52.38655,32.1347c46.18433,-33.19688 55.32672,-44.00053 44.011,-96.8802l-9,-9l-43.51726,70.581l-30.97595,-18.33022z" fill="#6c63ff" id="svg_2"/>
  <path d="m321.124156,128.839764a3.17256,3.17256 0 0 0 -3.97134,-0.3909l-24.25934,15.80083a3.19147,3.19147 0 0 0 -0.5101,4.93544l61.694,61.42676a3.19121,3.19121 0 0 0 4.5466,-0.04391l20.218,-20.92546a3.19828,3.19828 0 0 0 -0.06531,-4.50042l-57.65251,-56.30234z" fill="#3f3d56" id="svg_3"/>
  <path d="m297.672586,145.939874l2.51058,-1.60071a2.392,2.392 0 0 0 3.44276,3.14072l16.24627,-11.16932a2.39058,2.39058 0 0 0 -0.63206,-4.25032l1.29346,-0.82469a0.87035,0.87035 0 0 1 1.087,0.12213l54.65363,53.70972a0.87032,0.87032 0 0 1 -0.022,1.245l-19.8489,19.34045a0.87035,0.87035 0 0 1 -1.21147,-0.01682l-57.66577,-58.34587a0.87033,0.87033 0 0 1 0.1465,-1.35029z" fill="#fff" id="svg_4"/>
  <polygon points="360.7509765625,173.2080078125 343.9849853515625,189.0159912109375 304.10601806640625,149.61599731445312 324.344970703125,136.44198608398438 360.7509765625,173.2080078125 " fill="#007fff" id="svg_5"/>
  <path d="m305.656136,159.339204a0.58112,0.58112 0 0 0 0,-0.82055l-3.48743,-3.48736a0.59434,0.59434 0 0 0 -0.82062,0a0.58113,0.58113 0 0 0 0,0.82054l3.48744,3.48737a0.59433,0.59433 0 0 0 0.82061,0z" fill="#e6e6e6" id="svg_6"/>
  <path d="m311.530906,164.393424l-3.48743,-3.48743a0.58026,0.58026 0 0 0 -0.82062,0.82061l3.48744,3.48744a0.58026,0.58026 0 1 0 0.82061,-0.82062z" fill="#e6e6e6" id="svg_7"/>
  <circle cx="360.36406" cy="186.77668" r="3.91651" fill="#007fff" id="svg_8"/>
  <path d="m108.685046,314.851934l-19.89631,5.25263l0,0a24.82477,24.82477 0 0 1 -31.63782,11.72141l-0.43459,-0.17983a29.70031,29.70031 0 0 1 -7.30216,-4.45825c-8.35656,-6.774 -22.27915,-10.27006 -40.74163,-11.0926a5.34958,5.34958 0 0 1 -3.73826,-5.38464l0,0a5.3496,5.3496 0 0 1 4.65028,-5.02349l99.55254,-12.98511l-0.45205,22.14988z" fill="#e6e6e6" id="svg_11"/>
  <path d="m366.798756,332.481424c-52.051,-8.34748 -99.46966,-21.85879 -139.22771,-43.9096l-123.40638,30.28653l0.452,-27.06035l96.46128,-33.83343a122.5869,122.5869 0 0 1 50.75383,-6.48573l114.96694,21.33357l0.00004,59.66901z" fill="#2f2e41" id="svg_12"/>
  <path d="m168.357176,343.340684l0,0a6.32849,6.32849 0 0 1 2.60126,-7.11715l46.66778,-24.53585l11.30095,-29.38247l19.43764,12.205l-5.42447,21.69784l1.2827,8.97885a19.85578,19.85578 0 0 1 -19.6562,22.66381l-50.148,0a6.3285,6.3285 0 0 1 -6.06166,-4.51003z" fill="#e6e6e6" id="svg_13"/>
  <path d="m429.632036,315.756014c-56.35808,70.069 -95.13546,-6.24968 -133.35121,-87.24334l-46.10788,75.03831l-28.02636,-19.88963l48.32706,-106.31953a18.2009,18.2009 0 0 1 28.94021,-5.819l67.3849,75.0714l12.65706,-0.90407l50.17622,70.06586z" fill="#2f2e41" id="svg_14"/>
  <circle cx="432.79629" cy="82.05237" r="33.450809" fill="#ffb9b9" id="svg_15"/>
  <path d="m475.287836,141.721354l-37.06712,8.13669a223.8748,223.8748 0 0 0 -15.36925,-44.29969l34.35489,-12.65706a237.74055,237.74055 0 0 0 18.08148,48.82006z" fill="#ffb9b9" id="svg_16"/>
  <path d="m432.796306,324.344734l-65.99755,-77.75054l26.87452,-44.66984c2.82866,-20.09466 13.20743,-35.88912 29.17819,-48.4989l10.84891,-18.03263l32.54674,-13.56114l0,0a66.60524,66.60524 0 0 1 19.75654,78.36242l-53.20735,124.15063z" fill="#007fff" id="svg_17"/>
  <path d="m375.839516,238.457514l-39.77935,-30.73859l-18.84539,-14.382a14.13789,14.13789 0 0 1 0.56756,-22.88916l0,0a14.13789,14.13789 0 0 1 20.38835,4.82052l6.93021,12.561l38.87527,33.45081l-8.13665,17.17742z" fill="#ffb9b9" id="svg_18"/>
  <path d="m378.551746,214.855614l-10.84891,22.6019l55.14864,27.12228c42.896,-37.34909 66.81389,-73.16471 50.62826,-124.76249l-20.79375,5.42445l-41.5875,84.98315l-32.54674,-15.36929z" fill="#007fff" id="svg_19"/>
  <circle cx="476.2228" cy="30.18248" r="13.31844" fill="#2f2e41" id="svg_20"/>
  <path d="m462.499316,26.921924a13.308,13.308 0 0 1 13.31213,-12.448c-0.275,-0.03489 -0.54757,-0.07731 -0.828,-0.09534a13.31844,13.31844 0 0 0 -1.709,26.582c0.28043,0.018 0.55617,0.01087 0.83339,0.01148a13.30794,13.30794 0 0 1 -11.60852,-14.05014z" fill="#2f2e41" id="svg_21"/>
  <path d="m462.424156,32.609254c-11.87785,-9.85348 -45.94685,2.66987 -48.1453,9.29449c-16.06228,2.189 -28.22339,11.56031 -28.22339,28.2233l0,0.00009c9.54953,3.91207 20.41026,3.43 32.15068,0c18.7152,15.25179 19.99817,34.42492 8.61644,56.44679l14.0026,0.28l17.35673,-25.36748l0.83,25.73124l32.09728,-0.64378l0,-36.8745a77.09491,77.09491 0 0 0 -8.2315,-35.32c-5.00179,-9.71734 -12.76406,-15.39124 -20.45354,-21.77015z" fill="#2f2e41" id="svg_22"/>
  <ellipse cx="432.53518" cy="88.84179" rx="6.36891" ry="8.91648" fill="#ffb8b8" id="svg_23"/>
  <rect x="95.63674" y="194.05944" width="2" height="6" fill="#e6e6e6" id="svg_26"/>
  <rect x="95.63674" y="210.99401" width="2" height="10.93506" fill="#e6e6e6" id="svg_27"/>
  <rect x="95.63674" y="232.86364" width="2" height="6" fill="#e6e6e6" id="svg_28"/>
  <rect x="290.63674" y="229.86364" width="2" height="6" fill="#e6e6e6" id="svg_31"/>
  <rect x="403.63674" y="53.99987" width="2" height="6" fill="#e6e6e6" id="svg_32"/>
  <rect x="403.63674" y="229.86364" width="2" height="6" fill="#007fff" id="svg_34"/>
  <path d="m42.000026,191.876154" fill="none" stroke="#fff" stroke-miterlimit="10" stroke-width="2" stroke-dasharray="12" id="svg_36"/>
 </g>
</svg>