<svg width="385" height="493" xmlns="http://www.w3.org/2000/svg">
 <title>landscape_mode</title>

 <g>
  <title>background</title>
  <rect fill="none" id="canvas_background" height="495" width="387" y="-1" x="-1"/>
 </g>
 <g>
  <title>Layer 1</title>
  <path id="svg_10" fill="#2f2e41" d="m149.826239,74.856587c0,34.71474 -14.94633,35.79334 -39.29486,35.79334s-48.879,-1.0786 -48.879,-35.79334s19.73839,-62.85659 44.08692,-62.85659s44.08694,28.14185 44.08694,62.85659z"/>
  <path id="svg_11" fill="#a0616a" d="m89.350569,76.270727s10.39425,43.4669 6.61452,48.19156s32.12771,15.11896 32.12771,15.11896l15.11892,-41.577l-8.5044,-0.94493s-12.28412,-2.8348 -8.50439,-26.45811s-36.85236,5.66952 -36.85236,5.66952z"/>
  <circle id="svg_12" fill="#a0616a" r="30.7103" cy="57.84455" cx="105.88689"/>
  <path id="svg_13" fill="#2f2e41" d="m75.649049,230.767187l-21.73345,18.89865s-66.14527,24.56824 -51.02635,62.36554s43.46692,93.54831 43.46692,93.54831l7.55946,17.95371l18.89865,0l12.28412,-5.66959l-2.8348,-7.55946s-6.61452,-10.39426 -6.61452,-16.06385s-11.33919,-70.86993 -18.89865,-75.5946c0,0 37.7973,-36.85236 65.20034,-38.74223s34.9625,-8.50439 50.08142,0s74.64966,24.56825 74.64966,24.56825s32.1277,58.58581 48.19155,68.98007s29.29291,45.35675 29.29291,45.35675l26.45811,-4.72466l-13.22906,-27.403s-13.229,-19.84358 -13.229,-28.348s-43.46689,-90.71352 -74.64966,-103.94257s-46.29792,-25.39233 -46.29792,-25.39233l-71.45761,-19.37893l-56.11212,21.14794z"/>
  <path id="svg_14" fill="#2f2e41" d="m53.915599,410.304347s-6.61453,-4.72466 -11.33919,4.72466s-17.95371,31.18277 -17.95371,31.18277s-38.74223,29.29291 -9.44933,36.85237c0,0 14.174,0.94493 38.74223,-16.06385s42.522,-25.51318 43.46689,-28.348s-5.66959,-34.9625 -12.28412,-34.9625s-4.72466,15.11892 -12.28412,15.11892a86.97825,86.97825 0 0 0 -16.06385,1.88987l-2.8348,-10.39424z"/>
  <path id="svg_15" fill="#2f2e41" d="m359.254629,419.440347a19.36672,19.36672 0 0 0 -24.90576,-11.7591c-1.45142,0.54428 -2.43415,1.11124 -2.62313,1.6782c-0.94494,2.8348 -9.49636,4.235 -10.41778,2.59s-7.53594,-6.36971 -2.81128,11.584s18.89865,56.696 26.45811,63.31048s34.01757,5.66959 35.90743,-0.94494s-0.94493,-18.89864 -4.72466,-23.62331s-10.39426,-19.84358 -11.33919,-25.51317c-0.44467,-2.66807 -2.98189,-10.14896 -5.54374,-17.32216z"/>
  <path id="svg_16" fill="#a0616a" d="m189.757419,286.051957s7.4348,32.04485 22.03066,24.51533s-16.00277,-37.52059 -16.00277,-37.52059l-6.02789,13.00526z"/>
  <path id="svg_17" fill="#a0616a" d="m108.493229,268.098247s7.4348,32.04486 22.03066,24.51534s-16.00272,-37.5206 -16.00272,-37.5206l-6.02794,13.00526z"/>
  <path id="svg_18" fill="#e6e6e6" d="m180.536549,215.648247c-10.93288,3.364 -18.1238,3.73249 -21.57283,7.11531a6.62324,6.62324 0 0 0 -1.10555,1.38908c-2.8348,4.72466 -15.11892,6.61453 -31.18277,2.8348a45.35364,45.35364 0 0 0 -16.50794,-1.20954c-5.49012,0.55753 -11.018,1.71978 -21.28936,1.20954c-17.92534,-0.8977 -26.49588,-59.58744 -30.55914,-75.31113c-0.21732,-0.85986 -0.42517,-1.58748 -0.62363,-2.17333c-3.77973,-11.33919 16.06385,-22.67838 18.89865,-25.51318s11.33919,-14.174 19.16326,-15.35515c7.81455,-1.18117 19.579,15.35515 19.579,15.35515s18.42618,-22.20591 16.53632,-27.8755s17.95371,-1.88987 21.73344,-2.8348c2.13556,-0.53862 11.05572,1.79534 18.41673,3.93089a15.72307,15.72307 0 0 1 11.31087,13.8716c0.12284,1.54025 0.25509,3.2128 0.3874,5.00819c2.34338,30.86149 6.19872,96.67607 -3.18445,99.55807z"/>
  <path id="svg_19" opacity="0.1" d="m110.167459,225.777917c-5.49012,0.55753 -11.018,1.71978 -21.28936,1.20954c-17.92534,-0.8977 -26.49588,-59.58744 -30.55914,-75.31113c0.68038,-4.89474 1.26624,-7.84293 1.26624,-7.84293l5.19712,7.087s25.04071,41.10456 31.65524,52.44375c2.70249,4.6301 8.24924,13.37076 13.7299,22.41377z"/>
  <path id="svg_20" fill="#e6e6e6" d="m65.254789,140.053667l-8.50439,3.77973s-11.33923,56.69595 8.50439,85.04392s27.403,33.07264 31.18277,37.7973a10.57748,10.57748 0 0 0 9.44933,3.77973s-3.77973,9.44932 2.83479,9.44932s31.18277,-9.44932 24.56825,-12.28412s-13.22906,-7.55946 -11.33919,-12.28412s-21.73345,-40.63209 -28.348,-51.97128s-28.34795,-63.31048 -28.34795,-63.31048z"/>
  <path id="svg_21" opacity="0.1" d="m180.536549,215.648247c-10.93288,3.364 -18.1238,3.73249 -21.57283,7.11531c-0.86932,-9.33594 -0.83154,-18.13326 0.78431,-25.069c5.80782,-24.89063 10.1908,-78.78882 9.92179,-92.13091c-0.03192,-1.58326 0.30629,0.94493 1.88987,0.94493l0,0.94493c6.99252,0 8.95794,-2.48517 10.92342,4.22383c0.39685,1.34184 0.81262,2.81593 1.23786,4.41287c2.34341,30.86146 6.19875,96.67604 -3.18442,99.55804z"/>
  <path id="svg_22" fill="#e6e6e6" d="m168.252429,100.366507l2.89574,0a15.74361,15.74361 0 0 1 15.11375,11.3109a322.154,322.154 0 0 1 8.44862,38.77052c5.6696,34.9625 12.28413,121.89628 11.33919,123.78615s11.33919,11.33919 5.6696,13.22905s-16.06385,5.6696 -20.78852,6.61453s-14.174,-8.50439 -14.174,-8.50439s-19.84358,-59.53074 -13.22906,-87.87872s4.72468,-97.32804 4.72468,-97.32804z"/>
  <path id="svg_23" fill="#2f2e41" d="m132.366079,36.007727c0,9.4019 -12.89835,17.02366 -28.80927,17.02366s-30.55529,5.03686 -30.55529,-4.365s14.64437,-29.68228 30.55529,-29.68228s28.80927,7.62171 28.80927,17.02362z"/>
  <path id="svg_24" fill="#2f2e41" d="m61.914059,80.748397s-1.1759,31.64755 30.273,29.90153s-4.25,-27.05181 -4.25,-27.05181l-26.023,-2.84972z"/>
 </g>
</svg>